<svg width="89" height="29" viewBox="0 0 89 29" fill="none" xmlns="http://www.w3.org/2000/svg">
<path id="arrow" d="M0.323647 16.6536C0.731597 17.3739 5.57619 15.1336 13.4221 12.1073C17.9663 10.3464 22.6292 8.90896 27.3761 7.80567C33.0829 6.491 38.9466 5.98795 44.7939 6.31138C50.5839 6.67907 56.2576 8.10401 61.5343 10.5157C65.9558 12.4885 70.1851 14.8665 74.168 17.6193C77.0222 19.6042 79.3247 21.4171 81.0945 22.8219C80.1979 22.8274 79.3194 22.8405 78.4809 22.8678C76.311 22.9382 74.3542 23.0794 72.7083 23.2794C69.4165 23.6795 67.3675 24.3152 67.3417 25.0914C67.316 25.8676 69.3184 26.6375 72.5765 27.2547C74.2056 27.5634 76.1486 27.8339 78.3091 28.0479C79.3893 28.1549 80.5239 28.2477 81.7008 28.3243C82.2894 28.3578 82.888 28.3918 83.4964 28.4264L84.415 28.4678C84.6069 28.4719 84.6181 28.4846 85.0467 28.4826C85.3477 28.4767 85.6469 28.4345 85.9378 28.357C86.4395 28.2239 86.9025 27.9736 87.2887 27.6267C87.6748 27.2798 87.9731 26.8462 88.1591 26.3616C88.2789 26.0513 88.3554 25.7259 88.3862 25.3947C88.4051 25.1986 88.4111 25.0014 88.4041 24.8044L88.3882 24.496C88.3641 24.1133 88.3249 23.7415 88.2747 23.382C88.1759 22.7064 88.0418 22.0365 87.8728 21.375C87.5533 20.1283 87.2228 19.0892 86.8956 18.0425C86.2376 15.9735 85.5695 14.129 84.9292 12.5995C83.6489 9.54054 82.4799 7.74169 81.726 7.9281C80.972 8.1145 80.7758 10.2507 81.068 13.5539C81.2141 15.2056 81.4823 17.1489 81.864 19.2861C81.906 19.5052 81.95 19.7354 81.9928 19.959C80.3396 18.0036 78.543 16.1741 76.6178 14.4858C72.7108 11.0707 68.3881 8.16284 63.7522 5.83127C57.9751 2.85494 51.6443 1.10722 45.1585 0.69823C38.7399 0.330792 32.305 1.03363 26.1171 2.77797C21.1565 4.1746 16.3553 6.08542 11.7916 8.47934C4.07781 12.569 -0.0395786 16.03 0.323647 16.6536Z" fill="#468E0D"/>
</svg>
